<?xml version="1.0" standalone="no"?><!DOCTYPE svg PUBLIC "-//W3C//DTD SVG 1.1//EN" "http://www.w3.org/Graphics/SVG/1.1/DTD/svg11.dtd"><svg t="1628835274426" class="icon" viewBox="0 0 1024 1024" version="1.1" xmlns="http://www.w3.org/2000/svg" p-id="2817" xmlns:xlink="http://www.w3.org/1999/xlink" width="200" height="200"><defs><style type="text/css"></style></defs><path d="M512.449422 1023.999545a511.544662 511.544662 0 1 1 424.618478-227.555455 34.133318 34.133318 0 0 1-56.888863-38.229316A443.733136 443.733136 0 1 0 512.449422 955.732909a437.361583 437.361583 0 0 0 182.044364-39.59465 34.133318 34.133318 0 0 1 28.216876 62.350195 511.089551 511.089551 0 0 1-210.26124 45.511091z" fill="#717372" p-id="2818"></path><path d="M512.449422 713.613905a34.133318 34.133318 0 0 1-34.133318-34.133318v-62.350195a39.594649 39.594649 0 0 1 10.01244-26.396432 35.953762 35.953762 0 0 1 24.120878-11.832884 125.1555 125.1555 0 0 0 110.591951-182.044363A125.1555 125.1555 0 0 0 455.560559 343.153625 124.700389 124.700389 0 0 0 387.293922 455.110909a34.588429 34.588429 0 0 1-34.133318 34.133318A34.133318 34.133318 0 0 1 319.027286 455.110909a193.422136 193.422136 0 1 1 227.555454 190.23636v35.498651a34.133318 34.133318 0 0 1-34.133318 32.767985zM512.449422 790.072538a33.223096 33.223096 0 0 1-34.133318-32.767986v-3.185776a34.133318 34.133318 0 0 1 68.266636 0 35.498651 35.498651 0 0 1-34.133318 35.953762z" fill="#717372" p-id="2819"></path></svg>