<?xml version="1.0" standalone="no"?><!DOCTYPE svg PUBLIC "-//W3C//DTD SVG 1.1//EN" "http://www.w3.org/Graphics/SVG/1.1/DTD/svg11.dtd"><svg t="1628910560102" class="icon" viewBox="0 0 1024 1024" version="1.1" xmlns="http://www.w3.org/2000/svg" p-id="10180" xmlns:xlink="http://www.w3.org/1999/xlink" width="200" height="200"><defs><style type="text/css"></style></defs><path d="M302.545455 372.363636c-116.363636 0-209.454545 93.090909-209.454546 209.454546s93.090909 209.454545 209.454546 209.454545 209.454545-93.090909 209.454545-209.454545-93.090909-209.454545-209.454545-209.454546z m0 395.636364c-102.4 0-186.181818-83.781818-186.181819-186.181818s83.781818-186.181818 186.181819-186.181818 186.181818 83.781818 186.181818 186.181818-83.781818 186.181818-186.181818 186.181818z" p-id="10181" fill="#ffffff"></path><path d="M386.327273 570.181818c4.654545-11.636364 9.309091-23.272727 9.309091-34.909091 0-39.563636-30.254545-69.818182-69.818182-69.818182 0-13.963636-9.309091-23.272727-23.272727-23.272727s-23.272727 9.309091-23.272728 23.272727h-46.545454c-13.963636 0-23.272727 9.309091-23.272728 23.272728s9.309091 23.272727 23.272728 23.272727v139.636364c-13.963636 0-23.272727 9.309091-23.272728 23.272727s9.309091 23.272727 23.272728 23.272727h46.545454c0 13.963636 9.309091 23.272727 23.272728 23.272727s23.272727-9.309091 23.272727-23.272727h23.272727c39.563636 0 69.818182-30.254545 69.818182-69.818182 0-25.6-13.963636-46.545455-32.581818-58.181818zM279.272727 512h46.545455c13.963636 0 23.272727 9.309091 23.272727 23.272727s-9.309091 23.272727-23.272727 23.272728h-46.545455v-46.545455z m69.818182 139.636364h-69.818182v-46.545455h69.818182c13.963636 0 23.272727 9.309091 23.272727 23.272727s-9.309091 23.272727-23.272727 23.272728z" p-id="10182" fill="#ffffff"></path><path d="M1000.727273 605.090909h-46.545455v-69.818182h23.272727c13.963636 0 23.272727-9.309091 23.272728-23.272727v-116.363636c0-13.963636-9.309091-23.272727-23.272728-23.272728h-69.818181v-69.818181h46.545454c13.963636 0 23.272727-9.309091 23.272727-23.272728V162.909091c0-13.963636-9.309091-23.272727-23.272727-23.272727H418.909091c-13.963636 0-23.272727 9.309091-23.272727 23.272727v93.090909h-46.545455c-13.963636 0-23.272727 9.309091-23.272727 23.272727v2.327273c-6.981818 0-16.290909-2.327273-23.272727-2.327273-167.563636 0-302.545455 134.981818-302.545455 302.545455s134.981818 302.545455 302.545455 302.545454c11.636364 0 25.6 0 37.236363-2.327272 2.327273 2.327273 4.654545 2.327273 9.309091 2.327272h535.272727c13.963636 0 23.272727-9.309091 23.272728-23.272727v-93.090909h93.090909c13.963636 0 23.272727-9.309091 23.272727-23.272727v-116.363637c0-13.963636-9.309091-23.272727-23.272727-23.272727z m-46.545455-186.181818v69.818182h-46.545454v-34.909091c0-6.981818-4.654545-11.636364-11.636364-11.636364s-11.636364 4.654545-11.636364 11.636364V488.727273h-69.818181v-34.909091c0-6.981818-4.654545-11.636364-11.636364-11.636364s-11.636364 4.654545-11.636364 11.636364V488.727273h-69.818182v-34.909091c0-6.981818-4.654545-11.636364-11.636363-11.636364s-11.636364 4.654545-11.636364 11.636364V488.727273h-69.818182v-34.909091c0-6.981818-4.654545-11.636364-11.636363-11.636364s-11.636364 4.654545-11.636364 11.636364V488.727273h-13.963636c-6.981818-25.6-18.618182-48.872727-32.581818-69.818182h395.636363z m-104.727273 139.636364c-6.981818 0-11.636364 4.654545-11.636363 11.636363V605.090909h-69.818182v-34.909091c0-6.981818-4.654545-11.636364-11.636364-11.636363s-11.636364 4.654545-11.636363 11.636363V605.090909h-69.818182v-34.909091c0-6.981818-4.654545-11.636364-11.636364-11.636363s-11.636364 4.654545-11.636363 11.636363V605.090909h-48.872728c0-6.981818 2.327273-16.290909 2.327273-23.272727 0-16.290909-2.327273-30.254545-4.654545-46.545455H907.636364v69.818182h-46.545455v-34.909091c0-6.981818-4.654545-11.636364-11.636364-11.636363z m11.636364-186.181819h-46.545454v-34.909091c0-6.981818-4.654545-11.636364-11.636364-11.636363s-11.636364 4.654545-11.636364 11.636363V372.363636h-69.818182v-34.909091c0-6.981818-4.654545-11.636364-11.636363-11.636363s-11.636364 4.654545-11.636364 11.636363V372.363636h-69.818182v-34.909091c0-6.981818-4.654545-11.636364-11.636363-11.636363s-11.636364 4.654545-11.636364 11.636363V372.363636h-69.818182v-34.909091c0-6.981818-4.654545-11.636364-11.636363-11.636363s-11.636364 4.654545-11.636364 11.636363v25.6c-27.927273-25.6-58.181818-46.545455-93.090909-60.50909h442.181818v69.818181zM442.181818 186.181818h488.727273v69.818182h-46.545455V221.090909c0-6.981818-4.654545-11.636364-11.636363-11.636364s-11.636364 4.654545-11.636364 11.636364V256h-69.818182V221.090909c0-6.981818-4.654545-11.636364-11.636363-11.636364s-11.636364 4.654545-11.636364 11.636364V256h-69.818182V221.090909c0-6.981818-4.654545-11.636364-11.636363-11.636364s-11.636364 4.654545-11.636364 11.636364V256h-69.818182V221.090909c0-6.981818-4.654545-11.636364-11.636364-11.636364s-11.636364 4.654545-11.636363 11.636364V256h-69.818182V221.090909c0-6.981818-4.654545-11.636364-11.636364-11.636364s-11.636364 4.654545-11.636363 11.636364V256h-46.545455V186.181818zM46.545455 581.818182c0-141.963636 114.036364-256 256-256s256 114.036364 256 256-114.036364 256-256 256S46.545455 723.781818 46.545455 581.818182z m465.454545 256h-48.872727c18.618182-11.636364 34.909091-23.272727 48.872727-39.563637V837.818182z m349.090909 0h-46.545454v-34.909091c0-6.981818-4.654545-11.636364-11.636364-11.636364s-11.636364 4.654545-11.636364 11.636364V837.818182h-69.818182v-34.909091c0-6.981818-4.654545-11.636364-11.636363-11.636364s-11.636364 4.654545-11.636364 11.636364V837.818182h-69.818182v-34.909091c0-6.981818-4.654545-11.636364-11.636363-11.636364s-11.636364 4.654545-11.636364 11.636364V837.818182h-69.818182v-34.909091c0-6.981818-4.654545-11.636364-11.636363-11.636364h-4.654546c6.981818-6.981818 13.963636-16.290909 20.945455-23.272727H861.090909v69.818182z m116.363636-116.363637h-46.545454v-34.90909c0-6.981818-4.654545-11.636364-11.636364-11.636364s-11.636364 4.654545-11.636363 11.636364V721.454545h-69.818182v-34.90909c0-6.981818-4.654545-11.636364-11.636364-11.636364s-11.636364 4.654545-11.636363 11.636364V721.454545h-69.818182v-34.90909c0-6.981818-4.654545-11.636364-11.636364-11.636364s-11.636364 4.654545-11.636364 11.636364V721.454545h-69.818181v-34.90909c0-6.981818-4.654545-11.636364-11.636364-11.636364s-11.636364 4.654545-11.636364 11.636364V721.454545h-58.181818c11.636364-20.945455 20.945455-44.218182 25.6-69.818181H977.454545v69.818181z" p-id="10183" fill="#ffffff"></path></svg>