<?xml version="1.0" standalone="no"?><!DOCTYPE svg PUBLIC "-//W3C//DTD SVG 1.1//EN" "http://www.w3.org/Graphics/SVG/1.1/DTD/svg11.dtd"><svg t="1628834688325" class="icon" viewBox="0 0 1162 1024" version="1.1" xmlns="http://www.w3.org/2000/svg" p-id="2255" xmlns:xlink="http://www.w3.org/1999/xlink" width="226.953125" height="200"><defs><style type="text/css"></style></defs><path d="M1162.086515 38.296033A38.2168 38.2168 0 0 0 1110.056732 2.667517L133.745593 381.586954a35.258761 35.258761 0 0 1-12.941418 2.456228H38.2168a38.190389 38.190389 0 0 0-38.190389 38.190389v382.564163a38.190389 38.190389 0 0 0 38.190389 38.190388H169.823098l56.22914 129.097248a74.109426 74.109426 0 0 0 101.524104 45.427018c54.2219-24.298173 62.039573-61.352886 46.509872-101.946681l-34.624896-72.551174h784.408397a38.190389 38.190389 0 0 0 38.190389-38.190388z" fill="#717372" p-id="2256"></path></svg>