<?xml version="1.0" standalone="no"?><!DOCTYPE svg PUBLIC "-//W3C//DTD SVG 1.1//EN" "http://www.w3.org/Graphics/SVG/1.1/DTD/svg11.dtd"><svg t="1628835102362" class="icon" viewBox="0 0 1024 1024" version="1.1" xmlns="http://www.w3.org/2000/svg" p-id="1257" xmlns:xlink="http://www.w3.org/1999/xlink" width="200" height="200"><defs><style type="text/css"></style></defs><path d="M509.65 54c60.993 0 110.437 49.428 110.437 110.4 0 2.617-0.09 5.212-0.27 7.784 0.7 0.438 1.392 0.91 2.069 1.416L837.416 334.6l38.057 0.001c44.474 0 80.527 36.041 80.527 80.5v478.4c0 44.459-36.053 80.5-80.527 80.5H141.527C97.053 974 61 937.959 61 893.5V415.1c0-44.459 36.053-80.5 80.527-80.5l54.161-0.001 204.854-153.023a111.052 111.052 0 0 1-1.314-15.35l-0.015-1.826c0-60.972 49.445-110.4 110.437-110.4z m365.823 340.4H141.527c-11.232 0-20.375 8.94-20.698 20.09l-0.009 0.61v478.4c0 11.228 8.943 20.368 20.096 20.691l0.611 0.009h733.946c11.232 0 20.375-8.94 20.698-20.09l0.009-0.61V415.1c0-11.228-8.943-20.368-20.096-20.691l-0.611-0.009z m-107.39 313.95c16.519 0 29.91 13.387 29.91 29.9 0 16.277-13.011 29.517-29.204 29.892l-0.706 0.008h-520.72c-16.52 0-29.91-13.387-29.91-29.9 0-16.277 13.01-29.517 29.203-29.892l0.706-0.008h520.721z m-244.068-170.2c16.52 0 29.91 13.387 29.91 29.9 0 16.277-13.01 29.517-29.204 29.892l-0.706 0.008H247.362c-16.518 0-29.91-13.387-29.91-29.9 0-16.277 13.012-29.517 29.204-29.892l0.706-0.008h276.653z m74.102-307.655c-20.142 26.897-52.27 44.305-88.467 44.305-33.223 0-63.02-14.666-83.266-37.875l-130.76 97.674h441.857zM509.65 113.8c-27.955 0-50.617 22.654-50.617 50.6S481.695 215 509.65 215s50.617-22.654 50.617-50.6-22.662-50.6-50.617-50.6z" fill="#717372" p-id="1258"></path></svg>