<?xml version="1.0" standalone="no"?><!DOCTYPE svg PUBLIC "-//W3C//DTD SVG 1.1//EN" "http://www.w3.org/Graphics/SVG/1.1/DTD/svg11.dtd"><svg t="1628835780770" class="icon" viewBox="0 0 1024 1024" version="1.1" xmlns="http://www.w3.org/2000/svg" p-id="4760" xmlns:xlink="http://www.w3.org/1999/xlink" width="200" height="200"><defs><style type="text/css"></style></defs><path d="M579.15964 771.228829c-9.00382 19.908036-56.218523 19.206919-65.074739-1.180829-10.756613-24.742054-27.675676-17.324973-47.122451-17.749333 0 33.432216 17.269622 53.358703 42.9711 65.314594 31.605622 14.76036 63.211243 11.752937 90.813117-10.590558 16.605405-13.413477 27.675676-30.590847 24.98191-53.967568-20.05564-2.121802-35.923027-5.31373-46.568937 18.173694zM769.383784 686.633514c-14.077694-35.756973-17.841586-72.215063-16.605406-110.112289 1.21773-34.889802 0.295207-69.834955 0.258307-104.761657-0.092252-91.440432-49.926919-161.183135-137.179099-190.759208-13.874739-4.704865-21.494775-10.110847-21.900685-27.011459-0.590414-25.092613-24.55755-44.041225-51.550559-44.853045-27.767928-0.83027-54.48418 17.749333-55.056144 43.044901-0.442811 20.129441-10.701261 24.649802-26.144288 29.90818-81.366486 27.878631-132.787892 100.185946-133.046198 185.888288-0.092252 38.210883-0.959423 76.458667 0.258306 114.632649 1.125477 35.277261-2.952072 69.023135-15.848937 102.270847-11.845189 30.480144 1.974198 48.801441 34.299387 48.893693 63.91236 0.166054 127.824721 0 191.737082 0 65.886559 0 131.791568 0.184505 197.678126-0.110702 29.576072-0.073802 44.170378-19.336072 33.100108-47.030198zM540.598198 239.080937a17.122018 17.122018 0 1 1-17.122018 17.122018 17.140468 17.140468 0 0 1 17.251171-17.122018z m-184.264648 452.460396c-0.535063-2.417009-1.845045-4.594162-1.180829-5.922594 18.173694-39.244108 13.985441-81.034378 14.096144-122.308036 0.092252-30.978306 0-61.938162 0-92.916469 0.110703-84.872072 57.565405-149.854559 142.197621-158.858378 60.074667-6.402306 115.555171 3.985297 159.504145 50.314378 27.177514 28.635099 40.590991 62.528577 40.793946 101.791135 0.147604 50.092973-1.273081 100.222847 0.590414 150.223568 0.940973 25.683027 7.527784 51.163099 11.697586 77.676396z" p-id="4761" fill="#717372"></path></svg>