<?xml version="1.0" standalone="no"?><!DOCTYPE svg PUBLIC "-//W3C//DTD SVG 1.1//EN" "http://www.w3.org/Graphics/SVG/1.1/DTD/svg11.dtd"><svg t="1628835993875" class="icon" viewBox="0 0 1024 1024" version="1.1" xmlns="http://www.w3.org/2000/svg" p-id="1449" xmlns:xlink="http://www.w3.org/1999/xlink" width="200" height="200"><defs><style type="text/css"></style></defs><path d="M520.4 839.2c-9.2 0-18-3.2-25.2-9.2-43.2-34-152.4-132.4-178.8-156H204.8c-36.4 0-65.6-29.6-65.6-65.6v-212c0-36.4 29.6-65.6 65.6-65.6h130.8c24-21.2 121.6-107.2 160-136.8 7.6-5.6 16-8.8 25.2-8.8 6.4 0 12.8 1.6 19.2 4.8 21.2 10.4 37.6 38.8 37.6 64.4v516c0 26-16.8 54.4-38 64.4-6.4 2.8-12.8 4.4-19.2 4.4z m-174.4-210c8 7.2 122.8 110.8 174 152.8 2.4-3.6 4.4-8.4 4.4-12v-516c0-3.6-2-8.4-4.4-12.4-46.8 37.6-152.8 131.6-154 132.4-3.2 2.8-7.2 4.8-11.6 6-4 2.4-8.4 3.6-13.2 3.6H204.8c-7.2 0-12.8 5.6-12.8 12.8v212c0 7.2 5.6 12.8 12.8 12.8h122c6.8 0 13.6 2.8 19.2 8z m332 49.2c-6.4 0-12.8-2.4-17.6-6.8-10.8-9.6-11.6-26.4-2-37.2 35.2-38.8 52-78.4 49.6-117.2-3.6-58-48.8-97.6-49.2-98-5.2-4.4-8.8-10.8-9.2-18-0.4-7.2 1.6-14 6.4-19.2 5.2-6 12.4-9.2 20-9.2 6.4 0 12.4 2.4 17.2 6.4 2.4 2 62.4 54.4 68 134.8 3.6 53.6-17.6 106.4-63.2 156.4-5.2 4.8-12.4 8-20 8z" fill="#717372" p-id="1450"></path><path d="M768.4 774.4c-6 0-12-2-16.8-6-5.6-4.4-8.8-10.8-9.6-18-0.8-7.2 1.2-14 6-19.2 44.8-54.8 72-110.8 80.8-166.4 7.2-43.6 2.8-87.6-12.4-130.4-26-73.6-76-118.8-76.4-119.6-5.2-4.8-8.4-11.2-8.8-18.4-0.4-7.2 2-14 6.8-19.2 5.2-5.6 12-8.8 19.6-8.8 6.4 0 12.8 2.4 17.6 6.8 2.4 2 60.4 54.8 91.2 141.2 18.4 51.2 23.2 104 14.8 156.8-10.4 64.8-41.6 129.2-92 191.2-5.2 6.4-12.8 10-20.8 10z" fill="#717372" p-id="1451"></path></svg>