<?xml version="1.0" standalone="no"?><!DOCTYPE svg PUBLIC "-//W3C//DTD SVG 1.1//EN" "http://www.w3.org/Graphics/SVG/1.1/DTD/svg11.dtd"><svg t="1628907949909" class="icon" viewBox="0 0 1024 1024" version="1.1" xmlns="http://www.w3.org/2000/svg" p-id="5338" xmlns:xlink="http://www.w3.org/1999/xlink" width="200" height="200"><defs><style type="text/css"></style></defs><path d="M512 1015.172414C234.637241 1015.172414 8.827586 789.362759 8.827586 512S234.637241 8.827586 512 8.827586 1015.172414 234.637241 1015.172414 512 789.362759 1015.172414 512 1015.172414z m0-918.068966C283.188966 97.103448 97.103448 283.188966 97.103448 512S283.188966 926.896552 512 926.896552 926.896552 740.811034 926.896552 512 740.811034 97.103448 512 97.103448z" fill="#ffffff" p-id="5339"></path><path d="M707.089655 697.026207c-26.129655 8.827586-79.977931 6.17931-79.977931 6.17931v-72.73931c32.662069 9.004138 84.568276-1.235862 84.568276-30.72-1.765517-39.017931-74.857931-61.44-173.550345-38.135173v188.38069h-90.041379v-172.491034c-19.950345 5.649655-39.547586 11.652414-58.791724 18.008276-19.244138 6.355862-37.252414 12.888276-53.848276 19.773793v85.274482h-90.747586V483.928276H335.448276v47.668965c12.182069-4.413793 28.071724-9.886897 47.492414-16.066207 19.42069-6.355862 41.666207-12.005517 65.677241-17.302068v-65.324138H257.05931l-1.05931-80.684138c28.071724 0 236.226207 2.648276 368.110345-7.944828 63.028966-4.943448 108.57931-17.655172 108.57931-17.655172l-1.05931 8.827586c-2.118621 33.191724-2.118621 64.088276 1.05931 97.456552H538.129655v48.375172c311.437241-37.428966 306.317241 177.257931 168.96 215.746207z" fill="#ffffff" p-id="5340"></path></svg>